<svg width="32" height="32" viewBox="0 0 32 32" fill="none" xmlns="http://www.w3.org/2000/svg">
<path d="M28.0003 20V24H32.0003V26.6667H28.0003V30.6667H25.3337V26.6667H21.3337V24H25.3337V20H28.0003ZM28.011 4C28.7417 4 29.3337 4.59333 29.3337 5.324V17.7893C28.4772 17.4868 27.5753 17.3326 26.667 17.3333V6.66667H5.33366L5.33499 25.3333L17.7243 12.9427C17.9536 12.7126 18.259 12.5743 18.5831 12.5537C18.9073 12.5331 19.2277 12.6316 19.4843 12.8307L19.6083 12.944L24.3363 17.6773C23.3025 17.9924 22.3432 18.5135 21.5163 19.2093C20.6893 19.9051 20.0118 20.7612 19.5247 21.7259C19.0375 22.6906 18.7508 23.744 18.6817 24.8225C18.6127 25.901 18.7628 26.9824 19.123 28.0013L3.98966 28C3.63874 27.9996 3.30232 27.86 3.05431 27.6117C2.8063 27.3635 2.66699 27.0269 2.66699 26.676V5.324C2.66943 4.97384 2.80953 4.63869 3.05701 4.39096C3.30449 4.14322 3.6395 4.00279 3.98966 4H28.011ZM10.667 9.33333C11.3742 9.33333 12.0525 9.61428 12.5526 10.1144C13.0527 10.6145 13.3337 11.2928 13.3337 12C13.3337 12.7072 13.0527 13.3855 12.5526 13.8856C12.0525 14.3857 11.3742 14.6667 10.667 14.6667C9.95975 14.6667 9.28147 14.3857 8.78137 13.8856C8.28128 13.3855 8.00033 12.7072 8.00033 12C8.00033 11.2928 8.28128 10.6145 8.78137 10.1144C9.28147 9.61428 9.95975 9.33333 10.667 9.33333Z" fill="#BF539E"/>
</svg>
