<svg width="18" height="18" viewBox="0 0 18 18" fill="none" xmlns="http://www.w3.org/2000/svg">
<g clip-path="url(#clip0_2879_12244)">
<path d="M1.5 2.99475C1.50137 2.79778 1.58018 2.60926 1.71938 2.46991C1.85859 2.33056 2.04704 2.25157 2.244 2.25H15.756C16.167 2.25 16.5 2.58375 16.5 2.99475V15.0052C16.4986 15.2022 16.4198 15.3907 16.2806 15.5301C16.1414 15.6694 15.953 15.7484 15.756 15.75H2.244C2.04661 15.7498 1.85737 15.6712 1.71787 15.5316C1.57836 15.392 1.5 15.2026 1.5 15.0052V2.99475ZM3 3.75V14.25H15V3.75H3ZM9 11.25C9.59674 11.25 10.169 11.0129 10.591 10.591C11.0129 10.169 11.25 9.59674 11.25 9C11.25 8.40326 11.0129 7.83097 10.591 7.40901C10.169 6.98705 9.59674 6.75 9 6.75C8.40326 6.75 7.83097 6.98705 7.40901 7.40901C6.98705 7.83097 6.75 8.40326 6.75 9C6.75 9.59674 6.98705 10.169 7.40901 10.591C7.83097 11.0129 8.40326 11.25 9 11.25ZM9 12.75C8.00544 12.75 7.05161 12.3549 6.34835 11.6517C5.64509 10.9484 5.25 9.99456 5.25 9C5.25 8.00544 5.64509 7.05161 6.34835 6.34835C7.05161 5.64509 8.00544 5.25 9 5.25C9.99456 5.25 10.9484 5.64509 11.6517 6.34835C12.3549 7.05161 12.75 8.00544 12.75 9C12.75 9.99456 12.3549 10.9484 11.6517 11.6517C10.9484 12.3549 9.99456 12.75 9 12.75ZM12.75 4.5H14.25V6H12.75V4.5Z" fill="white"/>
</g>
<defs>
<clipPath id="clip0_2879_12244">
<rect width="18" height="18" fill="white"/>
</clipPath>
</defs>
</svg>
