<svg width="24" height="25" viewBox="0 0 24 25" fill="none" xmlns="http://www.w3.org/2000/svg">
<path d="M4 5.5V19.5H20V5.5H4ZM3 3.5H21C21.2652 3.5 21.5196 3.60536 21.7071 3.79289C21.8946 3.98043 22 4.23478 22 4.5V20.5C22 20.7652 21.8946 21.0196 21.7071 21.2071C21.5196 21.3946 21.2652 21.5 21 21.5H3C2.73478 21.5 2.48043 21.3946 2.29289 21.2071C2.10536 21.0196 2 20.7652 2 20.5V4.5C2 4.23478 2.10536 3.98043 2.29289 3.79289C2.48043 3.60536 2.73478 3.5 3 3.5ZM12 9.5V6.5L17 11.5H8V9.5H12ZM7 13.5H16V15.5H12V18.5L7 13.5Z" fill="#BF539E"/>
</svg>
