<svg width="18" height="18" viewBox="0 0 18 18" fill="none" xmlns="http://www.w3.org/2000/svg">
<path d="M5.71277 6.534L8.11652 4.788C8.38636 4.59053 8.71457 4.48913 9.04877 4.5C9.4564 4.51016 9.85073 4.64708 10.177 4.89171C10.5032 5.13634 10.7451 5.47654 10.869 5.865C11.0085 6.30225 11.136 6.59775 11.2515 6.7515C11.6005 7.2171 12.0532 7.59495 12.5737 7.85507C13.0942 8.11519 13.6681 8.25041 14.25 8.25V9.75C13.4755 9.75084 12.7104 9.57996 12.0098 9.24965C11.3093 8.91934 10.6907 8.43782 10.1985 7.83975L9.67577 10.806L11.2215 12.1035L12.8888 16.6845L11.4788 17.1975L9.94877 12.9945L7.40627 10.8608C7.19762 10.6923 7.03795 10.4709 6.9439 10.2198C6.84985 9.96862 6.82486 9.69684 6.87152 9.43275L7.25327 7.269L6.74552 7.638L5.15027 9.834L3.93677 8.952L5.70002 6.525L5.71277 6.534ZM10.125 4.125C9.72719 4.125 9.34566 3.96696 9.06436 3.68566C8.78305 3.40436 8.62502 3.02282 8.62502 2.625C8.62502 2.22718 8.78305 1.84564 9.06436 1.56434C9.34566 1.28304 9.72719 1.125 10.125 1.125C10.5228 1.125 10.9044 1.28304 11.1857 1.56434C11.467 1.84564 11.625 2.22718 11.625 2.625C11.625 3.02282 11.467 3.40436 11.1857 3.68566C10.9044 3.96696 10.5228 4.125 10.125 4.125ZM7.89602 14.0107L5.48552 16.8832L4.33652 15.9195L6.56852 13.26L7.12802 11.625L8.47127 12.75L7.89602 14.0107Z" fill="white"/>
</svg>
