<svg width="24" height="25" viewBox="0 0 24 25" fill="none" xmlns="http://www.w3.org/2000/svg">
<path d="M24 16.5L16 24.4947L1.336 24.5C0.983314 24.5014 0.644492 24.3628 0.393981 24.1145C0.14347 23.8662 0.00176413 23.5287 0 23.176V1.824C0 1.09333 0.593333 0.5 1.324 0.5H22.676C23.4067 0.5 24 1.108 24 1.836V16.5ZM21.3333 3.16667H2.66667V21.8333H13.3333V15.1667C13.3334 14.8401 13.4533 14.5249 13.6703 14.2808C13.8873 14.0368 14.1863 13.8809 14.5107 13.8427L14.6667 13.8333L21.3333 13.832V3.16667ZM20.228 16.4987L16 16.5V20.7253L20.228 16.4987Z" fill="black"/>
</svg>
